<svg width="41" height="41" viewBox="0 0 41 41" fill="none" xmlns="http://www.w3.org/2000/svg">
<path d="M37.2457 1.30196C37.5866 1.07462 37.9958 0.972501 38.4036 1.01298C38.8114 1.05347 39.1925 1.23405 39.4821 1.52397C39.7716 1.8139 39.9517 2.19522 39.9916 2.603C40.0315 3.01077 39.9288 3.41976 39.7009 3.76029L39.4741 4.03659L23.0105 20.494L39.4741 36.9549L39.7009 37.2312C39.9267 37.5718 40.0277 37.98 39.9869 38.3866C39.9461 38.7932 39.7659 39.1731 39.4769 39.4621C39.1879 39.751 38.8079 39.9312 38.4013 39.972C37.9946 40.0128 37.5864 39.9117 37.2457 39.686L36.9693 39.4593L20.5057 22.9984L4.0456 39.4593C3.88219 39.6285 3.68672 39.7634 3.4706 39.8562C3.25448 39.949 3.02203 39.9979 2.78682 39.9999C2.55161 40.002 2.31835 39.9572 2.10065 39.8681C1.88295 39.7791 1.68516 39.6475 1.51884 39.4812C1.35252 39.3149 1.22098 39.1172 1.13191 38.8995C1.04284 38.6819 0.998023 38.4486 1.00007 38.2135C1.00211 37.9783 1.05098 37.7459 1.14382 37.5298C1.23666 37.3137 1.37161 37.1183 1.5408 36.9549L18.0009 20.494L1.5408 4.03659L1.31051 3.76029C1.08103 3.4195 0.977177 3.00955 1.01673 2.60063C1.05629 2.19171 1.2368 1.80926 1.52735 1.51876C1.81789 1.22826 2.20041 1.04778 2.6094 1.00823C3.01839 0.968679 3.42841 1.07251 3.76925 1.30196L4.0456 1.5322L20.5057 17.9896L36.9693 1.5322L37.2457 1.30196Z" fill="white" stroke="white" stroke-width="2"/>
</svg>
