<svg width="32" height="44" viewBox="0 0 32 44" fill="none" xmlns="http://www.w3.org/2000/svg">
<path d="M29.25 19.8C29.25 23.4202 27.8277 26.8921 25.2959 29.452C22.7642 32.0119 19.3304 33.45 15.75 33.45M15.75 33.45C12.1696 33.45 8.7358 32.0119 6.20406 29.452C3.67232 26.8921 2.25 23.4202 2.25 19.8M15.75 33.45V41.25M15.75 41.25H8.03571M15.75 41.25H23.4643M15.75 25.65C14.2155 25.65 12.7439 25.0337 11.6589 23.9366C10.5738 22.8395 9.96429 21.3515 9.96429 19.8V8.1C9.96429 6.54848 10.5738 5.06051 11.6589 3.96343C12.7439 2.86634 14.2155 2.25 15.75 2.25C17.2845 2.25 18.7561 2.86634 19.8411 3.96343C20.9262 5.06051 21.5357 6.54848 21.5357 8.1V19.8C21.5357 21.3515 20.9262 22.8395 19.8411 23.9366C18.7561 25.0337 17.2845 25.65 15.75 25.65Z" stroke="white" stroke-width="4.5" stroke-linecap="round" stroke-linejoin="round"/>
</svg>
