<svg width="23" height="22" viewBox="0 0 23 22" fill="none" xmlns="http://www.w3.org/2000/svg">
<path d="M22.9583 0V15.1042C22.9583 16.2258 22.5128 17.3015 21.7196 18.0946C20.9265 18.8878 19.8508 19.3333 18.7292 19.3333C17.6075 19.3333 16.5318 18.8878 15.7387 18.0946C14.9456 17.3015 14.5 16.2258 14.5 15.1042C14.5 13.9825 14.9456 12.9068 15.7387 12.1137C16.5318 11.3206 17.6075 10.875 18.7292 10.875C19.3817 10.875 19.9979 11.02 20.5417 11.2858V4.19292L8.45833 6.76667V17.5208C8.45833 18.6425 8.01276 19.7182 7.21964 20.5113C6.42652 21.3044 5.35081 21.75 4.22917 21.75C3.10752 21.75 2.03182 21.3044 1.23869 20.5113C0.445572 19.7182 0 18.6425 0 17.5208C0 16.3992 0.445572 15.3235 1.23869 14.5304C2.03182 13.7372 3.10752 13.2917 4.22917 13.2917C4.88167 13.2917 5.49792 13.4367 6.04167 13.7025V3.625L22.9583 0Z" fill="white"/>
</svg>
