<svg width="47" height="45" viewBox="0 0 47 45" fill="none" xmlns="http://www.w3.org/2000/svg">
<path d="M38.25 20.8C38.25 19.5574 37.2426 18.55 36 18.55C34.7574 18.55 33.75 19.5574 33.75 20.8H36H38.25ZM11.25 20.8C11.25 19.5574 10.2426 18.55 9 18.55C7.75736 18.55 6.75 19.5574 6.75 20.8H9H11.25ZM14.7857 40C13.5431 40 12.5357 41.0074 12.5357 42.25C12.5357 43.4926 13.5431 44.5 14.7857 44.5V42.25V40ZM30.2143 44.5C31.4569 44.5 32.4643 43.4926 32.4643 42.25C32.4643 41.0074 31.4569 40 30.2143 40V42.25V44.5ZM22.5 26.65V28.9V26.65ZM16.7143 20.8H14.4643H16.7143ZM18.4089 4.96343L16.8091 3.38125L18.4089 4.96343ZM22.5 3.25V1V3.25ZM28.2857 9.1H30.5357H28.2857ZM26.0357 14.75C26.0357 15.9926 27.0431 17 28.2857 17C29.5284 17 30.5357 15.9926 30.5357 14.75H28.2857H26.0357ZM15.5501 5.03381C14.9301 6.1107 15.3004 7.48634 16.3773 8.1064C17.4542 8.72646 18.8298 8.35613 19.4499 7.27924L17.5 6.15653L15.5501 5.03381ZM36 20.8H33.75C33.75 23.8314 32.5588 26.7338 30.4462 28.8698L32.0459 30.452L33.6457 32.0342C36.5966 29.0505 38.25 25.009 38.25 20.8H36ZM32.0459 30.452L30.4462 28.8698C28.3344 31.005 25.4756 32.2 22.5 32.2V34.45V36.7C26.6852 36.7 30.694 35.0187 33.6457 32.0342L32.0459 30.452ZM22.5 34.45V32.2C19.5244 32.2 16.6656 31.005 14.5538 28.8698L12.9541 30.452L11.3543 32.0342C14.306 35.0187 18.3148 36.7 22.5 36.7V34.45ZM12.9541 30.452L14.5538 28.8698C12.4412 26.7338 11.25 23.8314 11.25 20.8H9H6.75C6.75 25.009 8.4034 29.0505 11.3543 32.0342L12.9541 30.452ZM22.5 34.45H20.25V42.25H22.5H24.75V34.45H22.5ZM22.5 42.25V40H14.7857V42.25V44.5H22.5V42.25ZM22.5 42.25V44.5H30.2143V42.25V40H22.5V42.25ZM22.5 26.65V24.4C21.5703 24.4 20.6737 24.0268 20.0086 23.3544L18.4089 24.9366L16.8091 26.5188C18.3142 28.0405 20.3607 28.9 22.5 28.9V26.65ZM18.4089 24.9366L20.0086 23.3544C19.3428 22.6811 18.9643 21.7628 18.9643 20.8H16.7143H14.4643C14.4643 22.9403 15.3049 24.9978 16.8091 26.5188L18.4089 24.9366ZM18.4089 4.96343L20.0086 6.5456C20.6737 5.87318 21.5703 5.5 22.5 5.5V3.25V1C20.3607 1 18.3142 1.8595 16.8091 3.38125L18.4089 4.96343ZM22.5 3.25V5.5C23.4297 5.5 24.3263 5.87318 24.9914 6.5456L26.5911 4.96343L28.1909 3.38125C26.6858 1.8595 24.6393 1 22.5 1V3.25ZM26.5911 4.96343L24.9914 6.5456C25.6572 7.21887 26.0357 8.13725 26.0357 9.1H28.2857H30.5357C30.5357 6.95972 29.6951 4.90216 28.1909 3.38125L26.5911 4.96343ZM28.2857 9.1H26.0357V14.75H28.2857H30.5357V9.1H28.2857ZM26.5911 24.9366L24.9914 23.3544C24.3263 24.0268 23.4297 24.4 22.5 24.4V26.65V28.9C24.6393 28.9 26.6858 28.0405 28.1909 26.5188L26.5911 24.9366ZM16.7143 20.8H18.9643V14.75H16.7143H14.4643V20.8H16.7143ZM17.5 6.15653L19.4499 7.27924C19.6032 7.01299 19.7905 6.76621 20.0086 6.5456L18.4089 4.96343L16.8091 3.38125C16.3161 3.87976 15.8943 4.43606 15.5501 5.03381L17.5 6.15653Z" fill="white"/>
<path d="M4 2.25L43 41.25" stroke="#E33C68" stroke-width="4.5" stroke-linecap="round"/>
</svg>
