<svg width="45" height="36" viewBox="0 0 45 36" fill="none" xmlns="http://www.w3.org/2000/svg">
<path d="M19.8919 23.3074C19.0209 23.796 18.0361 24.0438 17.0384 24.0254C16.0407 24.0071 15.0656 23.7234 14.2129 23.2032C13.3602 22.683 12.6604 21.945 12.185 21.0645C11.7095 20.1841 11.4755 19.1928 11.5068 18.1919C11.5381 17.191 11.8335 16.2164 12.363 15.3676C12.8925 14.5188 13.637 13.8262 14.5205 13.3607C15.404 12.8951 16.3949 12.6732 17.3918 12.7177C18.3887 12.7621 19.356 13.0713 20.1949 13.6137M33.9823 23.3074C33.1112 23.796 32.1265 24.0438 31.1287 24.0254C30.131 24.0071 29.156 23.7234 28.3033 23.2032C27.4506 22.683 26.7508 21.945 26.2753 21.0645C25.7999 20.1841 25.5658 19.1928 25.5971 18.1919C25.6284 17.191 25.9239 16.2164 26.4534 15.3676C26.9828 14.5188 27.7274 13.8262 28.6109 13.3607C29.4944 12.8951 30.4852 12.6732 31.4821 12.7177C32.479 12.7621 33.4464 13.0713 34.2852 13.6137M4.27778 2H40.7222C41.3263 2 41.9057 2.24082 42.3329 2.66947C42.76 3.09813 43 3.67951 43 4.28571V31.7143C43 32.3205 42.76 32.9019 42.3329 33.3305C41.9057 33.7592 41.3263 34 40.7222 34H4.27778C3.67367 34 3.09431 33.7592 2.66715 33.3305C2.23998 32.9019 2 32.3205 2 31.7143V4.28571C2 3.67951 2.23998 3.09813 2.66715 2.66947C3.09431 2.24082 3.67367 2 4.27778 2Z" stroke="white" stroke-width="4" stroke-linecap="round" stroke-linejoin="round"/>
</svg>
