<svg width="45" height="36" viewBox="0 0 45 36" fill="none" xmlns="http://www.w3.org/2000/svg">
<path fill-rule="evenodd" clip-rule="evenodd" d="M0 4.5C0 3.30653 0.474106 2.16193 1.31802 1.31802C2.16193 0.474106 3.30653 0 4.5 0H40.5C41.6935 0 42.8381 0.474106 43.682 1.31802C44.5259 2.16193 45 3.30653 45 4.5V31.5C45 32.6935 44.5259 33.8381 43.682 34.682C42.8381 35.5259 41.6935 36 40.5 36H4.5C3.30653 36 2.16193 35.5259 1.31802 34.682C0.474106 33.8381 0 32.6935 0 31.5V4.5ZM15.6645 15.426C16.1848 15.1543 16.7676 15.0249 17.354 15.051C17.9403 15.0771 18.5094 15.2577 19.0035 15.5745C19.252 15.7346 19.5296 15.8443 19.8205 15.8971C20.1113 15.95 20.4098 15.9451 20.6987 15.8826C20.9877 15.8201 21.2615 15.7013 21.5045 15.5331C21.7476 15.3648 21.9551 15.1502 22.1153 14.9018C22.2754 14.6533 22.385 14.3757 22.4379 14.0848C22.4908 13.7939 22.4858 13.4955 22.4233 13.2065C22.3609 12.9176 22.2421 12.6438 22.0738 12.4007C21.9055 12.1577 21.691 11.9501 21.4425 11.79C20.2791 11.0405 18.9376 10.6133 17.555 10.552C16.1724 10.4906 14.7983 10.7973 13.5731 11.4408C12.3478 12.0842 11.3153 13.0413 10.581 14.2144C9.84667 15.3874 9.43686 16.7344 9.39342 18.1176C9.34999 19.5009 9.67447 20.8709 10.3337 22.0877C10.993 23.3045 11.9634 24.3245 13.1459 25.0436C14.3284 25.7626 15.6805 26.1549 17.0642 26.1804C18.4479 26.2059 19.8136 25.8637 21.0218 25.1887C21.2797 25.0446 21.5067 24.851 21.6899 24.619C21.873 24.3871 22.0086 24.1214 22.0891 23.837C22.1695 23.5527 22.1932 23.2553 22.1587 22.9618C22.1242 22.6683 22.0322 22.3844 21.888 22.1265C21.7438 21.8686 21.5502 21.6415 21.3183 21.4584C21.0864 21.2753 20.8206 21.1396 20.5363 21.0592C20.2519 20.9787 19.9545 20.9551 19.661 20.9896C19.3675 21.0241 19.0837 21.1161 18.8257 21.2603C18.0521 21.6795 17.1436 21.7742 16.3001 21.5235C15.4566 21.2729 14.7472 20.6974 14.328 19.9237C13.9088 19.1501 13.8141 18.2416 14.0647 17.3981C14.3154 16.5546 14.8908 15.8452 15.6645 15.426ZM29.583 15.426C30.1033 15.1543 30.6861 15.0249 31.2725 15.051C31.8588 15.0771 32.4279 15.2577 32.922 15.5745C33.1705 15.7346 33.4481 15.8443 33.739 15.8971C34.0298 15.95 34.3283 15.9451 34.6172 15.8826C34.9062 15.8201 35.18 15.7013 35.423 15.5331C35.6661 15.3648 35.8736 15.1502 36.0337 14.9018C36.1939 14.6533 36.3035 14.3757 36.3564 14.0848C36.4093 13.7939 36.4043 13.4955 36.3418 13.2065C36.2794 12.9176 36.1606 12.6438 35.9923 12.4007C35.824 12.1577 35.6095 11.9501 35.361 11.79C34.1976 11.0405 32.8561 10.6133 31.4735 10.552C30.0909 10.4906 28.7168 10.7973 27.4916 11.4408C26.2663 12.0842 25.2338 13.0413 24.4995 14.2144C23.7652 15.3874 23.3554 16.7344 23.3119 18.1176C23.2685 19.5009 23.593 20.8709 24.2522 22.0877C24.9115 23.3045 25.8819 24.3245 27.0644 25.0436C28.2469 25.7626 29.599 26.1549 30.9827 26.1804C32.3664 26.2059 33.7321 25.8637 34.9402 25.1887C35.1982 25.0446 35.4252 24.851 35.6084 24.619C35.7915 24.3871 35.9271 24.1214 36.0076 23.837C36.088 23.5527 36.1117 23.2553 36.0772 22.9618C36.0427 22.6683 35.9507 22.3844 35.8065 22.1265C35.6623 21.8686 35.4687 21.6415 35.2368 21.4584C35.0049 21.2753 34.7391 21.1396 34.4548 21.0592C34.1704 20.9787 33.873 20.9551 33.5795 20.9896C33.286 21.0241 33.0022 21.1161 32.7442 21.2603C31.9706 21.6795 31.0621 21.7742 30.2186 21.5235C29.3751 21.2729 28.6657 20.6974 28.2465 19.9237C27.8273 19.1501 27.7326 18.2416 27.9832 17.3981C28.2339 16.5546 28.8093 15.8452 29.583 15.426Z" fill="white"/>
</svg>
